# xmcd
#
# Track frame offsets:
#	150
#	14409
#	32237
#	44567
#	55332
#	69309
#	83155
#	98251
#	105899
#	118075
#	129973
#
# Disc length: 1885 seconds
#
# Revision: 1
# Processed by: cddbd v1.5.1PL0 Copyright (c) Steve Scherf et al.
# Submitted via: audiograbber 1.80
#
DISCID=83075b0b
DTITLE=Cheatin' Hearts - Cheatin' Hearts
DYEAR=1900
DGENRE=
TTITLE0=I Don't Believe You've Met My Baby
TTITLE1=Queen of Denial
TTITLE2=It Wasn't God Who Made Honky Tonk Angels
TTITLE3=I'm Barely Hangin' On To Me
TTITLE4=Show Me
TTITLE5=Other Side of You
TTITLE6=(It's A Mighty Thin Line) Between Love and Hate
TTITLE7=Steelwalk
TTITLE8=Darlin' Are You Ever Coming Home
TTITLE9=Above and Beyond
TTITLE10=Still Miss Someone
EXTD=
EXTT0=
EXTT1=
EXTT2=
EXTT3=
EXTT4=
EXTT5=
EXTT6=
EXTT7=
EXTT8=
EXTT9=
EXTT10=
PLAYORDER=
